<svg width="799" height="799" viewBox="0 0 799 799" fill="none" xmlns="http://www.w3.org/2000/svg">
<g filter="url(#filter0_d_252_16012)">
<mask id="mask0_252_16012" style="mask-type:luminance" maskUnits="userSpaceOnUse" x="211" y="139" width="426" height="506">
<path d="M590.765 414.167V476.565C590.765 490.575 583.108 507.113 570.629 519.592C558.149 532.072 541.689 539.728 527.601 539.728H485.493V632.367C485.493 639.334 479.827 645 472.86 645H287.658C280.69 645 275.025 639.334 275.025 632.367V541.871C275.025 498.997 257.186 462.86 241.491 429.02C225.796 395.18 211.862 363.713 211.862 329.184C211.862 224.83 297.075 139.694 401.351 139.694C481.511 139.694 524.539 173.304 550.417 207.221C565.729 227.204 574.227 246.957 578.668 259.742L597.272 304.531L635.706 385.456C639.151 392.806 635.247 401.458 627.514 403.678L590.918 414.243L590.765 414.167Z" fill="white"/>
</mask>
<g mask="url(#mask0_252_16012)">
<g filter="url(#filter1_b_252_16012)">
<path d="M590.765 414.167V476.565C590.765 490.575 583.108 507.113 570.629 519.592C558.149 532.072 541.689 539.728 527.601 539.728H485.493V632.367C485.493 639.334 479.827 645 472.86 645H287.658C280.69 645 275.025 639.334 275.025 632.367V541.871C275.025 498.997 257.186 462.86 241.491 429.02C225.796 395.18 211.862 363.713 211.862 329.184C211.862 224.83 297.075 139.694 401.351 139.694C481.511 139.694 524.539 173.304 550.417 207.221C565.729 227.204 574.227 246.957 578.668 259.742L597.272 304.531L635.706 385.456C639.151 392.806 635.247 401.458 627.514 403.678L590.918 414.243L590.765 414.167Z" fill="white" fill-opacity="0.9"/>
</g>
<g filter="url(#filter2_f_252_16012)">
<path d="M591.073 396.306V458.977C591.073 473.049 583.384 489.659 570.853 502.193C558.321 514.727 541.791 522.417 527.645 522.417H485.36V615.462C485.36 622.46 479.671 628.15 472.674 628.15H286.696C279.7 628.15 274.011 622.46 274.011 615.462V524.57C274.011 481.507 256.097 445.212 240.336 411.224C224.576 377.235 210.583 345.631 210.583 310.95C210.583 206.14 296.153 120.63 400.866 120.63C481.362 120.63 524.57 154.388 550.556 188.453C565.932 208.524 574.466 228.363 578.925 241.205L597.608 286.189L636.202 367.469C639.662 374.851 635.741 383.541 627.976 385.771L591.226 396.383L591.073 396.306Z" stroke="#282828" stroke-opacity="0.3" stroke-width="61" stroke-linejoin="round"/>
</g>
<g filter="url(#filter3_f_252_16012)">
<path d="M591.073 396.306V458.977C591.073 473.049 583.384 489.659 570.853 502.193C558.321 514.727 541.791 522.417 527.645 522.417H485.36V615.462C485.36 622.46 479.671 628.15 472.674 628.15H286.696C279.7 628.15 274.011 622.46 274.011 615.462V524.57C274.011 481.507 256.097 445.212 240.336 411.224C224.576 377.235 210.583 345.631 210.583 310.95C210.583 206.14 296.153 120.63 400.866 120.63C481.362 120.63 524.57 154.388 550.556 188.453C565.932 208.524 574.466 228.363 578.925 241.205L597.608 286.189L636.202 367.469C639.662 374.851 635.741 383.541 627.976 385.771L591.226 396.383L591.073 396.306Z" stroke="#282828" stroke-opacity="0.3" stroke-width="61" stroke-linejoin="round"/>
</g>
<g filter="url(#filter4_f_252_16012)">
<path d="M591.073 396.306V458.977C591.073 473.049 583.384 489.659 570.853 502.193C558.321 514.727 541.791 522.417 527.645 522.417H485.36V615.462C485.36 622.46 479.671 628.15 472.674 628.15H286.696C279.7 628.15 274.011 622.46 274.011 615.462V524.57C274.011 481.507 256.097 445.212 240.336 411.224C224.576 377.235 210.583 345.631 210.583 310.95C210.583 206.14 296.153 120.63 400.866 120.63C481.362 120.63 524.57 154.388 550.556 188.453C565.932 208.524 574.466 228.363 578.925 241.205L597.608 286.189L636.202 367.469C639.662 374.851 635.741 383.541 627.976 385.771L591.226 396.383L591.073 396.306Z" stroke="#282828" stroke-opacity="0.3" stroke-width="17" stroke-linejoin="round"/>
</g>
<g filter="url(#filter5_f_252_16012)">
<path d="M590.805 403.614V462.771C590.805 476.054 583.544 491.732 571.708 503.564C559.873 515.395 544.261 522.654 530.901 522.654H490.965V610.481C490.965 617.087 485.592 622.458 478.984 622.458H303.338C296.731 622.458 291.358 617.087 291.358 610.481V524.686C291.358 484.038 274.439 449.778 259.554 417.696C244.669 385.613 231.454 355.781 231.454 323.045C231.454 224.112 312.27 143.397 411.166 143.397C487.189 143.397 527.997 175.262 552.539 207.417C567.061 226.362 575.121 245.089 579.332 257.211L596.977 299.673L633.428 376.395C636.695 383.363 632.992 391.565 625.658 393.67L590.95 403.687L590.805 403.614Z" stroke="url(#paint0_radial_252_16012)" stroke-width="10" stroke-linejoin="round"/>
</g>
<g filter="url(#filter6_f_252_16012)">
<path d="M568.218 451.704C568.218 464.408 561.246 479.403 549.88 490.719C538.514 502.035 523.523 508.977 510.693 508.977H472.343V592.979C472.343 599.296 467.183 604.434 460.837 604.434H301.652" stroke="url(#paint1_radial_252_16012)" stroke-width="10" stroke-linejoin="round"/>
</g>
</g>
</g>
<path d="M593.111 415.85V476.333C593.111 491.174 585.086 508.337 572.273 521.185C559.461 534.032 542.419 542.083 527.534 542.083H487.982V632.35C487.982 640.701 481.212 647.5 472.867 647.5H287.917C279.573 647.5 272.802 640.701 272.802 632.35V541.73C272.802 501.458 256.9 467.183 241.798 434.634C241.044 433.01 240.292 431.389 239.545 429.773C223.9 395.95 209.725 363.958 209.725 328.75C209.725 222.878 295.935 136.5 401.456 136.5C482.38 136.5 526.051 170.599 552.308 205.106C567.776 225.349 576.369 245.35 580.869 258.325L599.396 303.049L637.751 384.03L637.756 384.041C641.837 392.771 637.225 403.091 628.005 405.748L593.111 415.85ZM593.111 415.85L628.002 405.749L593.111 415.85Z" stroke="#282828" stroke-width="5" stroke-linejoin="round"/>
<g filter="url(#filter7_f_252_16012)">
<circle cx="404.333" cy="270.217" r="69.4678" fill="white" fill-opacity="0.8"/>
</g>
<path d="M485.356 343.411L416.414 303.572V224H393.89V303.572L325 343.411L336.21 362.883L405.152 323.097L474.093 362.883L485.356 343.411Z" fill="#282828"/>
<g filter="url(#filter8_f_252_16012)">
<circle cx="404.333" cy="270.217" r="69.4678" fill="white" fill-opacity="0.5"/>
</g>
<defs>
<filter id="filter0_d_252_16012" x="167.862" y="129.694" width="513.105" height="593.306" filterUnits="userSpaceOnUse" color-interpolation-filters="sRGB">
<feFlood flood-opacity="0" result="BackgroundImageFix"/>
<feColorMatrix in="SourceAlpha" type="matrix" values="0 0 0 0 0 0 0 0 0 0 0 0 0 0 0 0 0 0 127 0" result="hardAlpha"/>
<feOffset dy="34"/>
<feGaussianBlur stdDeviation="22"/>
<feComposite in2="hardAlpha" operator="out"/>
<feColorMatrix type="matrix" values="0 0 0 0 0 0 0 0 0 0 0 0 0 0 0 0 0 0 0.14 0"/>
<feBlend mode="normal" in2="BackgroundImageFix" result="effect1_dropShadow_252_16012"/>
<feBlend mode="normal" in="SourceGraphic" in2="effect1_dropShadow_252_16012" result="shape"/>
</filter>
<filter id="filter1_b_252_16012" x="137.862" y="65.6938" width="573.105" height="653.306" filterUnits="userSpaceOnUse" color-interpolation-filters="sRGB">
<feFlood flood-opacity="0" result="BackgroundImageFix"/>
<feGaussianBlur in="BackgroundImageFix" stdDeviation="37"/>
<feComposite in2="SourceAlpha" operator="in" result="effect1_backgroundBlur_252_16012"/>
<feBlend mode="normal" in="SourceGraphic" in2="effect1_backgroundBlur_252_16012" result="shape"/>
</filter>
<filter id="filter2_f_252_16012" x="90.0831" y="0.130371" width="667.89" height="748.52" filterUnits="userSpaceOnUse" color-interpolation-filters="sRGB">
<feFlood flood-opacity="0" result="BackgroundImageFix"/>
<feBlend mode="normal" in="SourceGraphic" in2="BackgroundImageFix" result="shape"/>
<feGaussianBlur stdDeviation="45" result="effect1_foregroundBlur_252_16012"/>
</filter>
<filter id="filter3_f_252_16012" x="120.083" y="30.1304" width="607.89" height="688.52" filterUnits="userSpaceOnUse" color-interpolation-filters="sRGB">
<feFlood flood-opacity="0" result="BackgroundImageFix"/>
<feBlend mode="normal" in="SourceGraphic" in2="BackgroundImageFix" result="shape"/>
<feGaussianBlur stdDeviation="30" result="effect1_foregroundBlur_252_16012"/>
</filter>
<filter id="filter4_f_252_16012" x="180.083" y="90.1304" width="487.887" height="568.52" filterUnits="userSpaceOnUse" color-interpolation-filters="sRGB">
<feFlood flood-opacity="0" result="BackgroundImageFix"/>
<feBlend mode="normal" in="SourceGraphic" in2="BackgroundImageFix" result="shape"/>
<feGaussianBlur stdDeviation="11" result="effect1_foregroundBlur_252_16012"/>
</filter>
<filter id="filter5_f_252_16012" x="218.454" y="130.397" width="429.171" height="505.061" filterUnits="userSpaceOnUse" color-interpolation-filters="sRGB">
<feFlood flood-opacity="0" result="BackgroundImageFix"/>
<feBlend mode="normal" in="SourceGraphic" in2="BackgroundImageFix" result="shape"/>
<feGaussianBlur stdDeviation="4" result="effect1_foregroundBlur_252_16012"/>
</filter>
<filter id="filter6_f_252_16012" x="293.652" y="443.704" width="287.566" height="173.73" filterUnits="userSpaceOnUse" color-interpolation-filters="sRGB">
<feFlood flood-opacity="0" result="BackgroundImageFix"/>
<feBlend mode="normal" in="SourceGraphic" in2="BackgroundImageFix" result="shape"/>
<feGaussianBlur stdDeviation="4" result="effect1_foregroundBlur_252_16012"/>
</filter>
<filter id="filter7_f_252_16012" x="270.865" y="136.749" width="266.936" height="266.936" filterUnits="userSpaceOnUse" color-interpolation-filters="sRGB">
<feFlood flood-opacity="0" result="BackgroundImageFix"/>
<feBlend mode="normal" in="SourceGraphic" in2="BackgroundImageFix" result="shape"/>
<feGaussianBlur stdDeviation="32" result="effect1_foregroundBlur_252_16012"/>
</filter>
<filter id="filter8_f_252_16012" x="270.865" y="136.749" width="266.936" height="266.936" filterUnits="userSpaceOnUse" color-interpolation-filters="sRGB">
<feFlood flood-opacity="0" result="BackgroundImageFix"/>
<feBlend mode="normal" in="SourceGraphic" in2="BackgroundImageFix" result="shape"/>
<feGaussianBlur stdDeviation="32" result="effect1_foregroundBlur_252_16012"/>
</filter>
<radialGradient id="paint0_radial_252_16012" cx="0" cy="0" r="1" gradientUnits="userSpaceOnUse" gradientTransform="translate(279.36 409.489) rotate(54.1856) scale(262.627 237.003)">
<stop stop-color="white"/>
<stop offset="1" stop-color="white" stop-opacity="0"/>
</radialGradient>
<radialGradient id="paint1_radial_252_16012" cx="0" cy="0" r="1" gradientUnits="userSpaceOnUse" gradientTransform="translate(464.817 508.147) rotate(107.241) scale(100.817 175.96)">
<stop stop-color="white"/>
<stop offset="1" stop-color="white" stop-opacity="0"/>
</radialGradient>
</defs>
</svg>
